<?xml version="1.0" encoding="UTF-8" standalone="no"?>
<svg width="104px" height="86px" viewBox="0 0 104 86" version="1.1" xmlns="http://www.w3.org/2000/svg" xmlns:xlink="http://www.w3.org/1999/xlink" xmlns:sketch="http://www.bohemiancoding.com/sketch/ns">
    <!-- Generator: Sketch 3.2.2 (9983) - http://www.bohemiancoding.com/sketch -->
    <title>Fill 79</title>
    <desc>Created with Sketch.</desc>
    <defs>
        <linearGradient x1="-14.6787981%" y1="-19.5144175%" x2="101.999998%" y2="100.999999%" id="linearGradient-1">
            <stop stop-color="#CE5752" offset="0%"></stop>
            <stop stop-color="#F78029" offset="100%"></stop>
        </linearGradient>
    </defs>
    <g id="Flatstrap---by-@rguilleminot" stroke="none" stroke-width="1" fill="none" fill-rule="evenodd" sketch:type="MSPage">
        <g id="Home-NEW3" sketch:type="MSArtboardGroup" transform="translate(-562.149933, -389.000000)" fill="url(#linearGradient-1)">
            <path d="M599.830392,410.441798 L612.923551,410.441798 C612.93389,410.440073 612.945953,410.440073 612.958016,410.441798 C613.671436,410.441798 614.250444,409.862178 614.250444,409.148002 C614.250444,408.704662 614.026423,408.311348 613.685222,408.078465 L595.284491,389.382255 C594.915718,389.009642 594.360836,388.899238 593.873159,389.092445 C593.387206,389.294277 593.070131,389.765219 593.070131,390.291363 L593.070131,403.676109 C593.070131,407.407416 596.103029,410.441798 599.830392,410.441798 L599.830392,410.441798 Z M595.654987,393.448224 L609.835509,407.854207 L599.830392,407.854207 C597.528146,407.854207 595.654987,405.979066 595.654987,403.676109 L595.654987,393.448224 L595.654987,393.448224 Z M595.998928,454.936292 L607.038695,454.936292 C609.571854,454.936292 611.631123,452.874844 611.631123,450.34073 L611.631123,412.353165 C611.631123,411.63899 612.210131,411.05937 612.923551,411.05937 C613.636971,411.05937 614.215979,411.63899 614.215979,412.353165 L614.215979,450.34073 C614.215979,454.30147 610.995248,457.523883 607.038695,457.523883 L598.842027,457.523883 L614.405887,471.689024 C614.736749,471.987459 615.143433,472.128914 615.591474,472.104763 C616.024007,472.070262 616.420352,471.856355 616.708132,471.502717 L626.582284,459.168532 C626.594347,459.147831 626.604686,459.128856 626.615025,459.111605 C626.646044,459.061578 626.678785,459.015002 626.714973,458.968425 L663.202806,413.742505 C663.650848,413.183586 664.462493,413.100783 665.019099,413.547574 C665.573981,413.997814 665.661866,414.812043 665.213824,415.367513 L628.817323,460.481303 C628.786305,460.53823 628.75184,460.591707 628.719099,460.636559 L618.719151,473.127724 C617.972989,474.045457 616.9356,474.595751 615.789647,474.683729 C615.681083,474.692355 615.574242,474.695805 615.467401,474.695805 C614.438629,474.695805 613.456383,474.314566 612.670587,473.607291 L594.999257,457.523883 L569.792637,457.523883 C565.837807,457.523883 562.618799,454.30147 562.618799,450.34073 L562.623969,396.011664 C562.744595,392.061275 565.89295,388.997567 569.792637,388.997567 L591.172846,388.997567 C591.886266,388.997567 592.465274,389.577187 592.465274,390.291363 C592.465274,391.005538 591.886266,391.585158 591.172846,391.585158 L569.792637,391.585158 C567.299112,391.585158 565.284648,393.546552 565.207102,396.053066 L565.203655,450.34073 C565.203655,452.874844 567.262924,454.936292 569.792637,454.936292 L592.156192,454.936292 L584.36124,447.841783 C583.832206,447.362216 583.794294,446.542812 584.273354,446.014943 C584.755861,445.48535 585.574399,445.449123 586.099986,445.926965 L595.998928,454.936292 Z" id="Fill-79" sketch:type="MSShapeGroup"></path>
        </g>
    </g>
</svg>