<?xml version="1.0" encoding="UTF-8" standalone="no"?>
<svg width="109px" height="105px" viewBox="0 0 109 105" version="1.1" xmlns="http://www.w3.org/2000/svg" xmlns:xlink="http://www.w3.org/1999/xlink" xmlns:sketch="http://www.bohemiancoding.com/sketch/ns">
    <!-- Generator: Sketch 3.2.2 (9983) - http://www.bohemiancoding.com/sketch -->
    <title>Fill 137 + Path 66</title>
    <desc>Created with Sketch.</desc>
    <defs>
        <linearGradient x1="0%" y1="0%" x2="101.999998%" y2="100.999999%" id="linearGradient-1">
            <stop stop-color="#D55752" offset="0%"></stop>
            <stop stop-color="#F78029" offset="100%"></stop>
        </linearGradient>
    </defs>
    <g id="Flatstrap---by-@rguilleminot" stroke="none" stroke-width="1" fill="none" fill-rule="evenodd" sketch:type="MSPage">
        <g id="Home-NEW3" sketch:type="MSArtboardGroup" transform="translate(-232.149933, -379.000000)">
            <g id="Fill-137-+-Path-66" sketch:type="MSLayerGroup" transform="translate(232.000000, 379.000000)">
                <path d="M26.2282411,7.29618248 C25.7509043,7.29618248 25.4338285,6.39052555 25.0030191,5.01220195 C24.392993,3.06460827 23.4762306,0.121654501 20.2520531,0.121654501 L4.8480322,0.121654501 C2.66813664,0.121654501 0.90871105,1.83291484 0.841504784,4.05479319 L0.838058309,57.1366399 C0.838058309,59.3533431 2.6388416,61.1543066 4.8480322,61.1543066 L35.9498768,61.1543066 C35.9498778,61.1543075 36.1562776,57.2961827 37.6162566,51.6755676 C38.7845039,47.1780587 41.177902,41.5251191 44.4476851,38.7311134 C47.943013,35.7443813 52.2408787,32.9305987 57.7179945,32.1153698 C60.3048506,31.730335 61.0310697,31.6386422 63.4955939,31.7393303 C66.8203288,31.8751622 70.4844288,31.9120973 70.4844291,31.7393307 C70.4844389,24.9302618 70.4844291,11.3121241 70.4844291,11.3121241 C70.4844291,9.09714599 68.685369,7.29618248 66.4761784,7.29618248 L26.2282411,7.29618248 Z M64.6688826,31.7110616 C63.398261,31.6272664 61.1517851,31.5057394 59.3314039,31.7110616 C54.8029366,32.2218311 48.3064727,35.5321002 45.1512396,38.314376 C41.8968252,41.1841097 40.4777088,43.7434054 38.8272688,48.3347561 C38.1181274,50.3075131 37.2659408,52.1846898 37.0203154,53.9636471 C36.6296307,56.7932052 35.918005,58.5667157 35.8064964,58.5667153 C25.4870084,58.5666844 4.8480322,58.5667153 4.8480322,58.5667153 C4.06395909,58.5667153 3.42291471,57.9249927 3.42291471,57.1366399 L3.42636118,18.9886448 L67.8978494,18.9886448 C67.8978494,18.9886448 67.8979243,27.0047824 67.8978494,31.0128512 C67.8978415,31.4390514 66.8772071,31.8566967 64.6688826,31.7110616 Z M67.8978494,16.4010535 L3.42636118,16.4010535 L3.42636118,4.09274453 C3.45048651,3.31646715 4.07602176,2.70924574 4.8480322,2.70924574 L20.2520531,2.70924574 C21.4497032,2.70924574 21.8667267,3.64595377 22.5336197,5.78330414 C23.0747163,7.51354015 23.8157084,9.88377372 26.2282411,9.88377372 L66.4761784,9.88377372 C67.2602515,9.88377372 67.8978494,10.5237713 67.8978494,11.3121241 L67.8978494,16.4010535 Z M108.621319,102.148652 L82.6400653,76.13991 C87.1428851,71.3011144 89.9241906,64.8355864 89.9241906,57.7179854 C89.9241906,42.7858589 77.7891514,30.6379805 62.8728068,30.6379805 C47.9599086,30.6379805 35.8283159,42.7858589 35.8283159,57.7179854 C35.8283159,72.6466618 47.9599086,84.7962652 62.8728068,84.7962652 C69.7485248,84.7962652 76.0142167,82.1931484 80.7910313,77.9477737 L106.794687,103.978942 C107.046279,104.2308 107.377141,104.35673 107.708003,104.35673 C108.038864,104.35673 108.369726,104.2308 108.621319,103.978942 C109.126227,103.473499 109.126227,102.654095 108.621319,102.148652 Z M38.4131723,57.7179854 C38.4131723,44.2124842 49.3867493,33.2255718 62.8728068,33.2255718 C76.3623107,33.2255718 87.3393342,44.2124842 87.3393342,57.7179854 C87.3393342,71.2200365 76.3623107,82.208674 62.8728068,82.208674 C49.3867493,82.208674 38.4131723,71.2200365 38.4131723,57.7179854 Z M78.4715535,56.4241898 L64.165235,56.4241898 L64.165235,42.1027348 C64.165235,41.3885596 63.5862272,40.8089392 62.8728068,40.8089392 C62.1593864,40.8089392 61.5803786,41.3885596 61.5803786,42.1027348 L61.5803786,56.4241898 L47.2792298,56.4241898 C46.5640862,56.4241898 45.9868016,57.0038102 45.9868016,57.7179854 C45.9868016,58.4321606 46.5640862,59.011781 47.2792298,59.011781 L61.5803786,59.011781 L61.5803786,73.333236 C61.5803786,74.0474112 62.1593864,74.6270316 62.8728068,74.6270316 C63.5862272,74.6270316 64.165235,74.0474112 64.165235,73.333236 L64.165235,59.011781 L78.4715535,59.011781 C79.1849739,59.011781 79.7639817,58.4321606 79.7639817,57.7179854 C79.7639817,57.0038102 79.1849739,56.4241898 78.4715535,56.4241898 Z" id="Fill-137" fill="url(#linearGradient-1)" sketch:type="MSShapeGroup"></path>
                <path d="M35.6900125,60.9197428 L36.4675484,61.3891121 L37.4395955,56.4192896 L38.8833002,49.4685049 L42.5449401,41.9896162 L49.4469063,35.9376509 L57.4826307,32.9795564 L64.0517668,32.1999864 L66.9846893,32.3357627 L69.6834356,32.5391731 L71.0142476,32.1323524 L69.3951015,30.668561 L67.3073489,31.2561625 L62.2218368,31.0074934 L59.9362676,31.3014213 L57.794357,31.7336682 L55.3923355,32.3131333 L51.5750867,33.731666 L46.1758142,36.9638559 L43.4101967,39.4836012 L41.2204847,42.0918299 L39.7259274,45.0247524 L37.9458329,49.0171883 L36.9341208,52.5577991 L36.1909104,56.2708001 L35.6935722,59.3710275 L35.6900125,60.9197428 Z" id="Path-66" fill="#E56A3F" sketch:type="MSShapeGroup"></path>
            </g>
        </g>
    </g>
</svg>