<?xml version="1.0" encoding="UTF-8" standalone="no"?>
<svg width="126px" height="81px" viewBox="0 0 126 81" version="1.1" xmlns="http://www.w3.org/2000/svg" xmlns:xlink="http://www.w3.org/1999/xlink" xmlns:sketch="http://www.bohemiancoding.com/sketch/ns">
    <!-- Generator: Sketch 3.2.2 (9983) - http://www.bohemiancoding.com/sketch -->
    <title>Fill 88</title>
    <desc>Created with Sketch.</desc>
    <defs>
        <linearGradient x1="87.4808039%" y1="100%" x2="39.8701814%" y2="20.853292%" id="linearGradient-1">
            <stop stop-color="#F78029" offset="0%"></stop>
            <stop stop-color="#CE5752" offset="100%"></stop>
        </linearGradient>
    </defs>
    <g id="Flatstrap---by-@rguilleminot" stroke="none" stroke-width="1" fill="none" fill-rule="evenodd" sketch:type="MSPage">
        <g id="Home-NEW3" sketch:type="MSArtboardGroup" transform="translate(-866.149933, -391.000000)" fill="url(#linearGradient-1)">
            <path d="M964.671332,424.51127 C964.723029,424.549221 964.762663,424.597523 964.81953,424.626849 C965.948251,425.175418 967.139008,425.618759 968.376292,425.951696 L965.265849,429.708878 C964.867781,430.188445 964.869504,430.887095 965.271018,431.366662 C965.522611,431.668547 965.889661,431.828978 966.26188,431.828978 C966.479008,431.828978 966.701305,431.772051 966.901201,431.658197 L975.765535,426.607219 C984.865953,425.860268 991.950183,419.422341 991.950183,411.845873 C991.950183,403.662185 983.888877,397.005175 973.980261,397 C973.980261,397 973.980261,397 973.978538,397 L973.973368,397 L973.971645,397 L973.957859,397 C973.21342,397.001725 972.481044,397.051752 971.755561,397.127655 C971.560836,397.148355 971.364386,397.163881 971.171384,397.188032 C970.585483,397.265659 970.011645,397.369163 969.4447,397.493367 C969.065587,397.57272 968.696815,397.665873 968.328042,397.764202 C968.228094,397.791803 968.129869,397.826304 968.029922,397.853905 C965.427833,398.600856 963.085953,399.827375 961.15765,401.457557 C961.136971,401.476533 961.116292,401.493783 961.09389,401.511034 C960.799217,401.762893 960.514883,402.018202 960.242611,402.289036 C959.877285,402.642674 959.532637,403.011837 959.205222,403.3948 C959.084595,403.541431 958.969138,403.691511 958.855405,403.843316 C958.45906,404.350484 958.090287,404.874903 957.768042,405.421747 C957.764595,405.426922 957.761149,405.430372 957.759426,405.433822 C957.757702,405.437273 957.757702,405.440723 957.755979,405.442448 C957.357911,406.129022 957.014987,406.846647 956.744439,407.591873 C956.249869,408.965022 956,410.396822 956,411.845873 C956,417.060732 959.355144,421.851226 964.671332,424.51127 L964.671332,424.51127 Z M959.17765,408.469929 C959.396501,407.866158 959.677389,407.284813 960.001358,406.725893 C960.297755,406.215275 960.640679,405.728808 961.016345,405.263041 C961.052533,405.216465 961.090444,405.168163 961.128355,405.121586 C961.493681,404.681696 961.895196,404.264231 962.322559,403.869192 C962.386319,403.808815 962.453525,403.751888 962.517285,403.693236 C962.949817,403.310273 963.406475,402.946285 963.888982,402.611623 C963.956188,402.566771 964.025117,402.523645 964.092324,402.480518 C964.573107,402.157932 965.076292,401.857771 965.603603,401.583487 C965.641514,401.564511 965.679426,401.54036 965.717337,401.519659 C966.254987,401.2471 966.818486,401.007316 967.394047,400.788234 C967.500888,400.748557 967.602559,400.707156 967.711123,400.667479 C968.272898,400.467372 968.851906,400.294866 969.441253,400.148236 C969.565326,400.117185 969.687676,400.087859 969.813473,400.060258 C970.414883,399.923978 971.026632,399.813574 971.648721,399.735946 C971.752115,399.722146 971.857232,399.715246 971.960627,399.704895 C972.61718,399.634168 973.284073,399.589316 973.957859,399.587591 L973.973368,399.587591 C982.460313,399.589316 989.365326,405.08881 989.365326,411.845873 C989.365326,418.150971 983.18235,423.510735 975.289922,424.048954 C975.095196,424.062754 974.907363,424.117956 974.738486,424.21456 L971.774517,425.903394 C972.033003,425.553207 972.096762,425.092616 971.943394,424.682051 C971.779687,424.247336 971.395405,423.933375 970.938747,423.859197 C969.429191,423.615964 968.005796,423.162273 966.656501,422.577477 C961.740104,420.448752 958.584856,416.320681 958.584856,411.845873 C958.584856,410.696983 958.783029,409.560168 959.17765,408.469929 L959.17765,408.469929 Z M894.278851,418.51127 C894.227154,418.549221 894.18752,418.597523 894.130653,418.626849 C893.001932,419.175418 891.811175,419.618759 890.57389,419.951696 L893.684334,423.708878 C894.082402,424.188445 894.080679,424.887095 893.679164,425.366662 C893.427572,425.668547 893.060522,425.828978 892.688303,425.828978 C892.471175,425.828978 892.248877,425.772051 892.048982,425.658197 L883.184648,420.607219 C874.08423,419.860268 867,413.422341 867,405.845873 C867,397.662185 875.061305,391.005175 884.969922,391 C884.969922,391 884.969922,391 884.971645,391 L884.976815,391 L884.978538,391 L884.992324,391 C885.736762,391.001725 886.469138,391.051752 887.194621,391.127655 C887.389347,391.148355 887.585796,391.163881 887.778799,391.188032 C888.3647,391.265659 888.938538,391.369163 889.505483,391.493367 C889.884595,391.57272 890.253368,391.665873 890.622141,391.764202 C890.722089,391.791803 890.820313,391.826304 890.920261,391.853905 C893.52235,392.600856 895.86423,393.827375 897.792533,395.457557 C897.813211,395.476533 897.83389,395.493783 897.856292,395.511034 C898.150966,395.762893 898.4353,396.018202 898.707572,396.289036 C899.072898,396.642674 899.417546,397.011837 899.744961,397.3948 C899.865587,397.541431 899.981044,397.691511 900.094778,397.843316 C900.491123,398.350484 900.859896,398.874903 901.182141,399.421747 C901.185587,399.426922 901.189034,399.430372 901.190757,399.433822 C901.19248,399.437273 901.19248,399.440723 901.194204,399.442448 C901.592272,400.129022 901.935196,400.846647 902.205744,401.591873 C902.700313,402.965022 902.950183,404.396822 902.950183,405.845873 C902.950183,411.060732 899.595039,415.851226 894.278851,418.51127 L894.278851,418.51127 Z M899.772533,402.469929 C899.553681,401.866158 899.272794,401.284813 898.948825,400.725893 C898.652428,400.215275 898.309504,399.728808 897.933838,399.263041 C897.89765,399.216465 897.859739,399.168163 897.821828,399.121586 C897.456501,398.681696 897.054987,398.264231 896.627624,397.869192 C896.563864,397.808815 896.496658,397.751888 896.432898,397.693236 C896.000366,397.310273 895.543708,396.946285 895.061201,396.611623 C894.993995,396.566771 894.925065,396.523645 894.857859,396.480518 C894.377076,396.157932 893.87389,395.857771 893.34658,395.583487 C893.308668,395.564511 893.270757,395.54036 893.232846,395.519659 C892.695196,395.2471 892.131697,395.007316 891.556136,394.788234 C891.449295,394.748557 891.347624,394.707156 891.23906,394.667479 C890.677285,394.467372 890.098277,394.294866 889.50893,394.148236 C889.384856,394.117185 889.262507,394.087859 889.13671,394.060258 C888.5353,393.923978 887.923551,393.813574 887.301462,393.735946 C887.198068,393.722146 887.09295,393.715246 886.989556,393.704895 C886.333003,393.634168 885.66611,393.589316 884.992324,393.587591 L884.976815,393.587591 C876.489869,393.589316 869.584856,399.08881 869.584856,405.845873 C869.584856,412.150971 875.767833,417.510735 883.660261,418.048954 C883.854987,418.062754 884.04282,418.117956 884.211697,418.21456 L887.175666,419.903394 C886.91718,419.553207 886.85342,419.092616 887.006789,418.682051 C887.170496,418.247336 887.554778,417.933375 888.011436,417.859197 C889.520992,417.615964 890.944386,417.162273 892.293681,416.577477 C897.210078,414.448752 900.365326,410.320681 900.365326,405.845873 C900.365326,404.696983 900.167154,403.560168 899.772533,402.469929 L899.772533,402.469929 Z M963.020522,455.577652 C960.034151,450.638803 953.840836,451.249474 953.716762,451.27535 L948.927885,451.27535 C948.709034,451.2719 943.684073,451.142521 940.742507,455.384445 C940.291018,456.029618 939.799896,457.097431 939.239843,458.649985 C939.213995,458.717263 939.220888,458.786265 939.207102,458.855268 C937.814726,454.395985 936.169034,449.945328 934.761149,448.102964 C930.53577,441.069891 921.692115,441.954847 921.459478,441.987623 L914.321828,441.987623 C914.011645,441.978998 906.873995,441.792691 902.686527,447.820054 C900.380836,451.140796 896.994674,463.819993 895.807363,469.095229 C895.648825,469.792153 896.086527,470.483903 896.782715,470.640883 C897.47718,470.796139 898.171645,470.361423 898.32846,469.664499 C899.572637,464.142579 902.858851,452.105105 904.807833,449.296706 C908.176762,444.45101 914.180522,444.576939 914.277023,444.575214 L921.597337,444.568314 C921.671436,444.557964 929.229556,443.833438 932.57953,449.491637 C932.608825,449.543389 932.641567,449.591691 932.677755,449.636543 C934.761149,452.272436 938.230026,464.077027 939.505222,469.667949 C939.641358,470.266545 940.175561,470.673659 940.764909,470.673659 C940.857963,470.673659 940.956188,470.663309 941.052689,470.640883 C941.748877,470.480453 942.184856,469.788703 942.024595,469.091779 C941.592063,467.195937 940.683916,463.692338 939.574151,460.036934 C939.698225,460.150788 939.8447,460.245667 940.0153,460.306044 C940.689086,460.545827 941.426632,460.20254 941.669608,459.529766 C942.29342,457.804706 942.684595,457.118131 942.862089,456.862822 C944.990287,453.799114 948.683185,453.862942 948.884804,453.862942 L953.852898,453.857766 C954.05624,453.831891 958.726214,453.400625 960.838903,456.966326 C960.868198,457.016353 960.899217,457.064655 960.937128,457.109506 C962.181305,458.686212 964.476658,466.166075 965.450287,470.4218 C965.586423,471.022122 966.118903,471.427511 966.706527,471.427511 C966.803029,471.427511 966.901253,471.417161 966.996031,471.39646 C967.692219,471.236029 968.128198,470.542555 967.969661,469.84563 C967.288982,466.8699 964.871279,458.034139 963.020522,455.577652 L963.020522,455.577652 Z M918.023342,439.915825 C926.960052,439.915825 934.230392,432.639518 934.230392,423.695078 C934.230392,414.754088 926.960052,407.479506 918.023342,407.479506 C909.093525,407.479506 901.826632,414.754088 901.826632,423.695078 C901.826632,432.639518 909.093525,439.915825 918.023342,439.915825 L918.023342,439.915825 Z M918.023342,410.067097 C925.534935,410.067097 931.645535,416.180713 931.645535,423.695078 C931.645535,431.212893 925.534935,437.328234 918.023342,437.328234 C910.516919,437.328234 904.411488,431.212893 904.411488,423.695078 C904.411488,416.180713 910.516919,410.067097 918.023342,410.067097 L918.023342,410.067097 Z M940.082507,439.393131 C940.082507,445.644752 945.162611,450.730231 951.405901,450.730231 C957.650914,450.730231 962.734465,445.644752 962.734465,439.393131 C962.734465,433.141511 957.650914,428.056032 951.405901,428.056032 C945.162611,428.056032 940.082507,433.141511 940.082507,439.393131 L940.082507,439.393131 Z M960.149608,439.393131 C960.149608,444.218127 956.22752,448.14264 951.405901,448.14264 C946.589452,448.14264 942.667363,444.218127 942.667363,439.393131 C942.667363,434.568136 946.589452,430.643623 951.405901,430.643623 C956.22752,430.643623 960.149608,434.568136 960.149608,439.393131 L960.149608,439.393131 Z" id="Fill-88" sketch:type="MSShapeGroup"></path>
        </g>
    </g>
</svg>